<svg xmlns="http://www.w3.org/2000/svg" viewBox="0 0 120 120" fill="none">
  <defs>
    <linearGradient id="sa-grad" x1="0%" y1="0%" x2="100%" y2="100%">
      <stop offset="0%" stop-color="#8b5cf6"/>
      <stop offset="100%" stop-color="#38bdf8"/>
    </linearGradient>
  </defs>
  <rect x="4" y="4" width="112" height="112" rx="24" fill="url(#sa-grad)"/>
  <path d="M46.5 78.5c-7.5 0-13.5-4.5-13.5-12h9c0 3 2.5 4.5 5 4.5 3 0 5-1.5 5-4 0-2.5-2-3.5-6-5-6-2.3-12-5.5-12-13 0-7.5 6-12 13-12 7.5 0 13 4.5 13 11.5h-9c0-2.5-2-4-4.5-4-2.5 0-4 1.5-4 3.5 0 2.5 2.5 3.5 6.5 5 6 2.3 11.5 5.5 11.5 13 0 8-6 12.5-14 12.5z" fill="white"/>
  <path d="M62 78l12-41h10l12 41h-9.5l-2-8H73.5l-2 8H62zm13.5-15h9l-4.5-17-4.5 17z" fill="white"/>
</svg>
